<svg xmlns="http://www.w3.org/2000/svg"
     viewBox="0 0 90 60"
     role="img"
     aria-labelledby="title description">
  <title id="title">Flag of India</title>
  <desc id="description">The national flag of India</desc>

  <rect width="90" height="20" y="0" fill="#ff9933"/>
  <rect width="90" height="20" y="20" fill="#ffffff"/>
  <rect width="90" height="20" y="40" fill="#138808"/>

  <g fill="none" stroke="#000080" stroke-width="0.8">
    <circle cx="45" cy="30" r="8"/>
    <line x1="47.000" y1="30.000" x2="53.000" y2="30.000" /><line x1="46.932" y1="30.518" x2="52.727" y2="32.071" /><line x1="46.732" y1="31.000" x2="51.928" y2="34.000" /><line x1="46.414" y1="31.414" x2="50.657" y2="35.657" /><line x1="46.000" y1="31.732" x2="49.000" y2="36.928" /><line x1="45.518" y1="31.932" x2="47.071" y2="37.727" /><line x1="45.000" y1="32.000" x2="45.000" y2="38.000" /><line x1="44.482" y1="31.932" x2="42.929" y2="37.727" /><line x1="44.000" y1="31.732" x2="41.000" y2="36.928" /><line x1="43.586" y1="31.414" x2="39.343" y2="35.657" /><line x1="43.268" y1="31.000" x2="38.072" y2="34.000" /><line x1="43.068" y1="30.518" x2="37.273" y2="32.071" /><line x1="43.000" y1="30.000" x2="37.000" y2="30.000" /><line x1="43.068" y1="29.482" x2="37.273" y2="27.929" /><line x1="43.268" y1="29.000" x2="38.072" y2="26.000" /><line x1="43.586" y1="28.586" x2="39.343" y2="24.343" /><line x1="44.000" y1="28.268" x2="41.000" y2="23.072" /><line x1="44.482" y1="28.068" x2="42.929" y2="22.273" /><line x1="45.000" y1="28.000" x2="45.000" y2="22.000" /><line x1="45.518" y1="28.068" x2="47.071" y2="22.273" /><line x1="46.000" y1="28.268" x2="49.000" y2="23.072" /><line x1="46.414" y1="28.586" x2="50.657" y2="24.343" /><line x1="46.732" y1="29.000" x2="51.928" y2="26.000" /><line x1="46.932" y1="29.482" x2="52.727" y2="27.929" />
  </g>

  <circle cx="45" cy="30" r="1.4" fill="#000080"/>
</svg>
